PathFileType	3	(X/Y/Z)	running_1__view2_aligned.trc
DataRate	CameraRate	NumFrames	NumMarkers	Units	OrigDataRate	OrigDataStartFrame	OrigNumFrames
100.0	100.0	17	19	mm	100.0	1002	6426
Frame#	Time	pelvis			neck			head			hip_left			hip_right			knee_left			knee_right			ankle_left			ankle_right			heel_left			heel_right			toe_left			toe_right			shoulder_left			shoulder_right			elbow_left			elbow_right			wrist_left			wrist_right			
		X1	Y1	Z1	X2	Y2	Z2	X3	Y3	Z3	X4	Y4	Z4	X5	Y5	Z5	X6	Y6	Z6	X7	Y7	Z7	X8	Y8	Z8	X9	Y9	Z9	X10	Y10	Z10	X11	Y11	Z11	X12	Y12	Z12	X13	Y13	Z13	X14	Y14	Z14	X15	Y15	Z15	X16	Y16	Z16	X17	Y17	Z17	X18	Y18	Z18	X19	Y19	Z19	
1002	10.01000	21.586567	927.362098	167.481090	19.731218	1476.420695	282.172413	12.263381	1549.064497	433.300337	95.948325	928.532278	168.425059	-52.774796	926.191837	166.537162	101.752656	524.235293	280.960693	-110.144809	527.196935	261.303746	75.284199	126.841136	172.427332	-128.011876	261.416379	-14.377208	67.827870	81.296063	134.106723	-123.582244	252.701029	-65.237884	74.095515	59.436958	350.977171	-150.092013	108.395196	53.437284	180.811973	1438.838431	227.500247	-143.981968	1443.777346	236.576548	277.863718	1219.237904	96.623942	-217.465841	1204.503481	122.086195	245.894243	1120.966684	272.733940	-156.055490	1106.109059	298.868374
1003	10.02000	23.032583	926.844939	167.629986	19.687308	1476.132977	282.323630	11.072965	1548.715600	433.288525	97.368105	928.036675	168.662061	-51.302566	925.653130	166.597948	103.277161	521.915365	274.094034	-108.571333	528.523138	269.049491	76.252336	129.159067	159.413268	-127.945572	259.904194	-0.292057	68.612651	84.916572	120.641502	-123.872371	250.328832	-50.602398	75.103748	58.415569	333.776112	-149.598577	109.502318	69.784650	181.675776	1438.736471	230.627613	-143.249798	1443.877367	234.349240	280.820007	1217.637369	104.330428	-216.964059	1206.671033	115.266276	239.822937	1122.142959	281.178737	-159.972373	1100.772798	289.210316
1004	10.03000	24.478599	926.327780	167.778881	19.643397	1475.845259	282.474847	9.882548	1548.366703	433.276713	98.787885	927.541073	168.899064	-49.830337	925.114423	166.658734	104.801666	519.595436	267.227374	-106.997858	529.849340	276.795235	77.220473	131.476999	146.399203	-127.879267	258.392010	13.793094	69.397432	88.537082	107.176281	-124.162497	247.956636	-35.966912	76.111980	57.394180	316.575053	-149.105141	110.609441	86.132016	182.539579	1438.634511	233.754979	-142.517629	1443.977389	232.121933	283.776296	1216.036833	112.036913	-216.462277	1208.838585	108.446356	233.751631	1123.319234	289.623535	-163.889255	1095.436538	279.552257
1005	10.04000	25.924615	925.810622	167.927776	19.599487	1475.557542	282.626064	8.692132	1548.017807	433.264902	100.207665	927.045471	169.136067	-48.358107	924.575716	166.719520	106.326172	517.275508	260.360714	-105.424382	531.175542	284.540980	78.188609	133.794930	133.385139	-127.812962	256.879826	27.878245	70.182213	92.157591	93.711060	-124.452624	245.584440	-21.331426	77.120213	56.372791	299.373994	-148.611706	111.716563	102.479381	183.403383	1438.532551	236.882345	-141.785459	1444.077411	229.894625	286.732585	1214.436298	119.743399	-215.960495	1211.006137	101.626436	227.680326	1124.495508	298.068332	-167.806137	1090.100277	269.894198
1006	10.05000	27.370632	925.293463	168.076672	19.555577	1475.269824	282.777281	7.501716	1547.668910	433.253090	101.627444	926.549869	169.373069	-46.885877	924.037009	166.780305	107.850677	514.955579	253.494054	-103.850907	532.501745	292.286725	79.156746	136.112862	120.371074	-127.746657	255.367642	41.963397	70.966994	95.778101	80.245839	-124.742751	243.212243	-6.695941	78.128446	55.351402	282.172935	-148.118270	112.823685	118.826747	184.267186	1438.430591	240.009711	-141.053290	1444.177433	227.667317	289.688874	1212.835762	127.449884	-215.458712	1213.173690	94.806517	221.609020	1125.671783	306.513130	-171.723019	1084.764017	260.236140
1007	10.06000	28.816648	924.776304	168.225567	19.511667	1474.982106	282.928498	6.311300	1547.320013	433.241278	103.047224	926.054267	169.610072	-45.413648	923.498302	166.841091	109.375183	512.635650	246.627395	-102.277431	533.827947	300.032470	80.124883	138.430793	107.357010	-127.680353	253.855458	56.048548	71.751775	99.398610	66.780618	-125.032877	240.840047	7.939545	79.136679	54.330013	264.971875	-147.624834	113.930808	135.174113	185.130989	1438.328630	243.137077	-140.321120	1444.277455	225.440009	292.645163	1211.235227	135.156370	-214.956930	1215.341242	87.986597	215.537714	1126.848058	314.957927	-175.639901	1079.427757	250.578081
1008	10.07000	30.262664	924.259146	168.374462	19.467756	1474.694389	283.079715	5.120884	1546.971117	433.229467	104.467004	925.558665	169.847074	-43.941418	922.959595	166.901877	110.899688	510.315722	239.760735	-100.703956	535.154150	307.778215	81.093019	140.748725	94.342945	-127.614048	252.343274	70.133699	72.536556	103.019120	53.315397	-125.323004	238.467850	22.575031	80.144912	53.308624	247.770816	-147.131398	115.037930	151.521479	185.994792	1438.226670	246.264443	-139.588950	1444.377476	223.212701	295.601452	1209.634691	142.862856	-214.455148	1217.508794	81.166677	209.466409	1128.024332	323.402724	-179.556783	1074.091496	240.920023
1009	10.08000	31.708680	923.741987	168.523358	19.423846	1474.406671	283.230932	3.930467	1546.622220	433.217655	105.886784	925.063063	170.084077	-42.469188	922.420888	166.962663	112.424194	507.995793	232.894075	-99.130480	536.480352	315.523960	82.061156	143.066656	81.328880	-127.547743	250.831090	84.218851	73.321337	106.639629	39.850176	-125.613131	236.095654	37.210517	81.153144	52.287235	230.569757	-146.637962	116.145052	167.868844	186.858595	1438.124710	249.391809	-138.856781	1444.477498	220.985393	298.557741	1208.034155	150.569341	-213.953366	1219.676346	74.346757	203.395103	1129.200607	331.847522	-183.473666	1068.755236	231.261964
1010	10.09000	30.824996	922.624675	168.239232	16.628682	1472.913318	282.791773	0.035439	1545.335753	432.718668	105.009231	924.071057	170.088600	-43.359074	921.178277	166.389884	112.750924	506.021724	229.461991	-96.963823	535.952609	321.678011	84.528779	147.615881	67.098415	-123.363075	246.106785	96.991027	76.029673	112.967712	24.635549	-121.513253	229.926735	50.584992	83.518144	51.359714	211.392293	-141.548043	115.496789	184.829061	184.701730	1436.631113	250.900269	-141.070090	1442.736646	218.621276	297.488871	1204.902745	154.953275	-215.616599	1218.593992	69.239672	198.909761	1127.211819	336.323758	-188.462626	1062.396247	225.501340
1011	10.10000	29.941313	921.507363	167.955107	13.833517	1471.419965	282.352614	-3.859589	1544.049287	432.219681	104.131678	923.079051	170.093122	-44.248960	919.935665	165.817105	113.077655	504.047655	226.029907	-94.797165	535.424866	327.832063	86.996402	152.165106	52.867950	-119.178407	241.382481	109.763203	78.738008	119.295795	9.420921	-117.413375	223.757817	63.959468	85.883143	50.432193	192.214828	-136.458124	114.848525	201.789278	182.544866	1435.137516	252.408729	-143.283398	1440.995793	216.257158	296.420000	1201.771334	159.337208	-217.279833	1217.511638	64.132587	194.424418	1125.223031	340.799994	-193.451586	1056.037258	219.740716
1012	10.11000	29.057629	920.390050	167.670982	11.038353	1469.926613	281.913455	-7.754617	1542.762820	431.720694	103.254125	922.087045	170.097645	-45.138845	918.693053	165.244325	113.404385	502.073585	222.597823	-92.630508	534.897123	333.986114	89.464025	156.714330	38.637486	-114.993739	236.658177	122.535379	81.446343	125.623877	-5.793706	-113.313497	217.588898	77.333944	88.248142	49.504672	173.037363	-131.368204	114.200261	218.749494	180.388001	1433.643919	253.917188	-145.496707	1439.254941	213.893041	295.351130	1198.639923	163.721142	-218.943066	1216.429283	59.025502	189.939076	1123.234244	345.276231	-198.440547	1049.678269	213.980092
1013	10.12000	28.173945	919.272738	167.386856	8.243189	1468.433260	281.474296	-11.649645	1541.476354	431.221707	102.376573	921.095039	170.102167	-46.028731	917.450442	164.671546	113.731116	500.099516	219.165739	-90.463851	534.369380	340.140165	91.931648	161.263555	24.407021	-110.809072	231.933872	135.307556	84.154679	131.951960	-21.008333	-109.213619	211.419980	90.708420	90.613141	48.577151	153.859899	-126.278285	113.551998	235.709711	178.231136	1432.150323	255.425648	-147.710016	1437.514088	211.528924	294.282259	1195.508512	168.105075	-220.606300	1215.346929	53.918417	185.453734	1121.245456	349.752467	-203.429507	1043.319280	208.219468
1014	10.13000	27.290261	918.155426	167.102731	5.448025	1466.939907	281.035137	-15.544674	1540.189887	430.722720	101.499020	920.103033	170.106690	-46.918617	916.207830	164.098767	114.057846	498.125446	215.733654	-88.297193	533.841637	346.294217	94.399271	165.812779	10.176556	-106.624404	227.209568	148.079732	86.863014	138.280043	-36.222960	-105.113741	205.251061	104.082896	92.978140	47.649630	134.682434	-121.188365	112.903734	252.669927	176.074271	1430.656726	256.934108	-149.923324	1435.773236	209.164806	293.213389	1192.377101	172.489009	-222.269533	1214.264575	48.811331	180.968391	1119.256668	354.228703	-208.418467	1036.960291	202.458844
1015	10.14000	26.406577	917.038114	166.818605	2.652860	1465.446554	280.595977	-19.439702	1538.903420	430.223733	100.621467	919.111027	170.111212	-47.808502	914.965218	163.525988	114.384577	496.151377	212.301570	-86.130536	533.313894	352.448268	96.866894	170.362004	-4.053909	-102.439736	222.485264	160.851908	89.571349	144.608126	-51.437587	-101.013864	199.082143	117.457371	95.343139	46.722109	115.504970	-116.098446	112.255470	269.630144	173.917407	1429.163129	258.442567	-152.136633	1434.032383	206.800689	292.144518	1189.245690	176.872942	-223.932767	1213.182220	43.704246	176.483049	1117.267880	358.704939	-213.407428	1030.601302	196.698219
1016	10.15000	25.522893	915.920801	166.534480	-0.142304	1463.953201	280.156818	-23.334730	1537.616954	429.724746	99.743914	918.119021	170.115734	-48.698388	913.722607	162.953209	114.711308	494.177308	208.869486	-83.963879	532.786151	358.602319	99.334517	174.911228	-18.284374	-98.255068	217.760959	173.624084	92.279684	150.936208	-66.652215	-96.913986	192.913224	130.831847	97.708139	45.794588	96.327505	-111.008526	111.607207	286.590360	171.760542	1427.669532	259.951027	-154.349942	1432.291531	204.436571	291.075648	1186.114279	181.256876	-225.596000	1212.099866	38.597161	171.997707	1115.279092	363.181176	-218.396388	1024.242313	190.937595
1017	10.16000	24.639209	914.803489	166.250355	-2.937468	1462.459848	279.717659	-27.229758	1536.330487	429.225759	98.866361	917.127016	170.120257	-49.588274	912.479995	162.380430	115.038038	492.203238	205.437402	-81.797221	532.258408	364.756371	101.802140	179.460453	-32.514839	-94.070400	213.036655	186.396261	94.988020	157.264291	-81.866842	-92.814108	186.744306	144.206323	100.073138	44.867067	77.150041	-105.918607	110.958943	303.550577	169.603677	1426.175935	261.459487	-156.563250	1430.550678	202.072454	290.006777	1182.982868	185.640809	-227.259234	1211.017512	33.490076	167.512364	1113.290304	367.657412	-223.385349	1017.883324	185.176971
1018	10.17000	23.755525	913.686177	165.966229	-5.732632	1460.966495	279.278500	-31.124787	1535.044021	428.726772	97.988808	916.135010	170.124779	-50.478159	911.237384	161.807651	115.364769	490.229169	202.005318	-79.630564	531.730665	370.910422	104.269763	184.009678	-46.745304	-89.885732	208.312351	199.168437	97.696355	163.592374	-97.081469	-88.714230	180.575387	157.580799	102.438137	43.939547	57.972576	-100.828687	110.310680	320.510793	167.446812	1424.682338	262.967946	-158.776559	1428.809826	199.708337	288.937907	1179.851457	190.024743	-228.922467	1209.935157	28.382991	163.027022	1111.301517	372.133648	-228.374309	1011.524336	179.416347
